# xmcd CD database file generated by Grip 2.96
# 
# Track frame offsets:
#       150
#       15285
#       33470
#       56370
#       72272
#       93062
#       119285
#       139082
#       164597
#       195102
#       213334
#       238162
# 
# Disc length: 3728 seconds
# 
# Revision: 0
# Processed by: cddbd v1.4PL0 Copyright (c) Steve Scherf et al.
# Submitted via: Grip 2.96
# 
DISCID=970e8e0c
DTITLE=The Crowd - Almost Every Sunday Night
DYEAR=1900
DGENRE=
TTITLE0=Turn on your love light
TTITLE1=Heard it through the grape vine
TTITLE2=Son of a preacher man
TTITLE3=Gimme some lovin'
TTITLE4=Treat her right
TTITLE5=That's the way love is
TTITLE6=Sweet Talk
TTITLE7=The Letter
TTITLE8=Do right woman
TTITLE9=Let it roll
TTITLE10=Proud Mary
TTITLE11=Just Funk
EXTD=
EXTT0=
EXTT1=
EXTT2=
EXTT3=
EXTT4=
EXTT5=
EXTT6=
EXTT7=
EXTT8=
EXTT9=
EXTT10=
EXTT11=
PLAYORDER=
